<?xml version="1.0" encoding="utf-8"?>
<!-- Generator: Adobe Illustrator 24.0.0, SVG Export Plug-In . SVG Version: 6.00 Build 0)  -->
<svg version="1.1" id="Layer_1" xmlns="http://www.w3.org/2000/svg" xmlns:xlink="http://www.w3.org/1999/xlink" x="0px" y="0px"
	 viewBox="0 0 512 418.4" style="enable-background:new 0 0 512 418.4;" xml:space="preserve">
<g>
	<path d="M354.6,314.2c-28.7,0-52.1,23.4-52.1,52.1s23.4,52.1,52.1,52.1s52.1-23.4,52.1-52.1S383.3,314.2,354.6,314.2z M354.6,384.5
		c-10,0-18.1-8.1-18.1-18.1s8.1-18.1,18.1-18.1s18.1,8.1,18.1,18.1C372.7,376.3,364.6,384.5,354.6,384.5z"/>
	<path d="M475.5,64h-354l-5-20.6C110.2,17.8,87.4,0,61.1,0H36.5c-9.4,0-17,7.6-17,17s7.6,17,17,17h24.7c10.6,0,19.8,7,22.3,17.3
		l49.2,201.2c6.3,25.6,29,43.5,55.4,43.5h210.4c26.8,0,49.6-18.4,55.6-44.4l38.2-167.1c1.2-5-0.1-10.2-3.3-14.2
		C485.6,66.2,480.7,64,475.5,64z M420.8,244.2c-2.4,10.5-11.6,17.8-22.4,17.8H188c-10.6,0-19.8-7.2-22.3-17.5L129.8,98h324.4
		L420.8,244.2z"/>
	<path d="M217.6,314.2c-28.7,0-52.1,23.4-52.1,52.1s23.4,52.1,52.1,52.1s52.1-23.4,52.1-52.1S246.3,314.2,217.6,314.2z M217.6,384.5
		c-10,0-18.1-8.1-18.1-18.1s8.1-18.1,18.1-18.1s18.1,8.1,18.1,18.1C235.7,376.3,227.6,384.5,217.6,384.5z"/>
</g>
</svg>
